<svg width="2612" height="754" viewBox="0 0 2612 754" fill="none" xmlns="http://www.w3.org/2000/svg">
<path fill-rule="evenodd" clip-rule="evenodd" d="M557.116 191.383C504.278 129.016 425.381 89.4271 337.238 89.4271C284.311 89.4271 234.719 103.701 192.1 128.61C185.317 128.041 178.679 127.934 172.337 128.154C161.089 128.544 150.352 129.973 140.767 131.91C194.594 88.79 262.904 63 337.238 63C431.121 63 515.396 104.139 573.019 169.374L557.116 191.383Z" fill="#2C2C2C"/>
<path d="M569.462 562.095C572.198 567.02 575.41 573.183 578.289 579.468C624.121 524.829 651.72 454.378 651.72 377.482C651.72 343.356 646.284 310.499 636.231 279.73L616.385 306.12C622.201 328.94 625.293 352.85 625.293 377.482C625.293 441.702 604.277 501.014 568.748 548.915C569.259 553.374 569.543 557.844 569.462 562.095Z" fill="#2C2C2C"/>
<path d="M337.238 665.537C178.15 665.537 49.1829 536.571 49.1829 377.482C49.1829 312.039 71.0066 251.693 107.773 203.325C101.682 196.204 96.1378 191.281 92.1952 188.562L91.8711 188.338L91.5569 188.101L91.394 187.978L84.1364 190.797C45.5608 243.009 22.7559 307.583 22.7559 377.482C22.7559 551.166 163.554 691.964 337.238 691.964C403.638 691.964 465.232 671.386 515.989 636.258C510.141 636.422 503.894 635.561 497.34 633.953L497.185 633.915L478.005 628.858C436.381 652.217 388.365 665.537 337.238 665.537Z" fill="#2C2C2C"/>
<path fill-rule="evenodd" clip-rule="evenodd" d="M157.519 359.678L157.534 359.644C157.524 359.644 157.519 359.655 157.519 359.678ZM329.375 342.294C329.354 342.352 329.332 342.41 329.31 342.466C329.31 342.44 329.332 342.383 329.375 342.294Z" fill="#2C2C2C"/>
<path fill-rule="evenodd" clip-rule="evenodd" d="M125.821 150.209C98.3373 134.882 64.3785 138.758 51.8257 141.621C62.3965 144.263 90.1449 163.863 102.698 173.333C121.857 186.547 161.498 232.001 166.783 308.111C172.069 384.221 207.305 422.628 224.262 432.318C179.36 410.193 157.533 361.145 157.519 359.678C133.761 414.63 161.281 457.427 178.015 471.959L257.957 541.991C284.384 566.832 290.991 599.029 290.991 612.022V625.897L245.404 649.02C244.523 649.901 242.893 651.663 243.422 651.663C243.95 651.663 259.058 656.068 266.546 658.27L304.865 641.092C320.193 635.278 323.144 627.658 322.703 624.575L321.382 610.701L315.436 560.49H316.757L416.519 594.845C409.692 608.279 396.17 635.014 396.699 634.485C384.014 639.242 372.915 655.847 368.951 663.555V666.198L406.609 658.931L409.912 637.128L429.072 596.827L501.747 615.987C532.699 623.579 530.612 604.843 530.167 600.848C530.109 600.324 530.079 600.054 530.156 600.13C529.099 584.803 505.49 561.591 493.818 551.901C451.755 523.051 367.761 465.484 368.29 466.013C343.977 450.157 318.519 415.801 308.829 400.606C295.087 385.278 296.056 355.46 298.258 342.466C300.24 375.5 334.595 421.748 335.256 422.408C353.755 450.817 472.677 524.152 472.016 523.492C514.828 546.219 554.16 589.78 568.475 608.719C567.946 598.148 556.362 576.126 550.637 566.436C553.279 546.615 540.066 506.975 539.405 505.654C538.932 504.708 527.513 483.631 521.567 473.28C506.371 478.566 481.266 468.656 481.926 468.656C520.51 469.713 531.037 455.883 531.477 448.835C531.257 438.485 530.684 417.783 530.156 417.783C536.498 415.141 538.084 395.1 538.084 385.41L540.066 376.822L717.688 140.643C719.468 138.276 720.431 135.394 720.431 132.433C720.431 129.395 721.444 126.448 723.298 124.041C725.927 120.628 728.956 116.653 731.058 113.789C732.856 111.341 732.015 109.178 729.087 109.981C723.614 111.481 714.711 116.103 707.794 120.055C705.791 121.2 703.325 119.459 703.777 117.196C704.153 115.32 702.464 113.677 700.554 113.775C699.132 113.848 697.83 113.735 697.307 113.211C696.378 112.283 698.713 108.091 700.182 105.452L700.183 105.45C700.804 104.335 701.271 103.498 701.271 103.301C701.271 101.413 700.371 99.9737 699.053 98.8945C696.163 96.5268 691.869 95.1289 687.749 93.7875C685.352 93.0072 683.014 92.2459 681.045 91.3241C678.071 89.9313 676.431 89.554 673.283 90.49C659.345 94.6344 633.301 120.827 620.668 135.014L538.084 249.311L450.214 376.161C432.375 349.734 398.02 328.592 397.36 329.253C383.485 324.628 341.863 288.291 341.863 287.63C343.61 316.751 332.522 336.63 329.87 341.384C329.632 341.81 329.462 342.115 329.375 342.294C329.354 342.352 329.332 342.41 329.31 342.466C329.31 342.44 329.332 342.383 329.375 342.294C333.897 330.128 329.967 283.657 329.31 281.684C321.91 226.716 265.444 179.059 238.137 162.102C198.496 136.732 143.219 148.007 120.536 156.816C122.078 154.614 125.293 150.209 125.821 150.209ZM187.925 217.598C198.142 217.598 206.424 209.316 206.424 199.099C206.424 188.883 198.142 180.6 187.925 180.6C177.708 180.6 169.426 188.883 169.426 199.099C169.426 209.316 177.708 217.598 187.925 217.598Z" fill="#2C2C2C"/>
<path d="M206.424 199.099C206.424 209.316 198.142 217.598 187.925 217.598C177.708 217.598 169.426 209.316 169.426 199.099C169.426 188.883 177.708 180.6 187.925 180.6C198.142 180.6 206.424 188.883 206.424 199.099Z" fill="#2C2C2C"/>
<path d="M283.446 118.389C283.768 117.518 284.999 117.518 285.322 118.389L292.433 137.606C292.534 137.879 292.75 138.095 293.023 138.197L312.24 145.308C313.111 145.63 313.111 146.861 312.24 147.183L293.023 154.294C292.75 154.395 292.534 154.611 292.433 154.885L285.322 174.102C284.999 174.973 283.768 174.973 283.446 174.102L276.335 154.885C276.234 154.611 276.018 154.395 275.744 154.294L256.527 147.183C255.657 146.861 255.657 145.63 256.527 145.308L275.744 138.197C276.018 138.095 276.234 137.879 276.335 137.606L283.446 118.389Z" fill="#2C2C2C"/>
<path d="M114.516 249.973C114.768 249.292 115.732 249.292 115.984 249.973L121.549 265.013C121.629 265.227 121.797 265.396 122.012 265.475L137.051 271.04C137.732 271.292 137.732 272.256 137.051 272.508L122.012 278.073C121.797 278.152 121.629 278.321 121.549 278.536L115.984 293.575C115.732 294.256 114.768 294.256 114.516 293.575L108.951 278.536C108.872 278.321 108.703 278.152 108.489 278.073L93.4493 272.508C92.768 272.256 92.768 271.292 93.4493 271.04L108.489 265.475C108.703 265.396 108.872 265.227 108.951 265.013L114.516 249.973Z" fill="#2C2C2C"/>
<path d="M91.8498 358.875C92.1719 358.004 93.4033 358.004 93.7255 358.875L100.836 378.092C100.938 378.366 101.153 378.582 101.427 378.683L120.644 385.794C121.515 386.116 121.515 387.347 120.644 387.67L101.427 394.78C101.153 394.882 100.938 395.098 100.836 395.371L93.7255 414.588C93.4033 415.459 92.1719 415.459 91.8498 414.588L84.7388 395.371C84.6375 395.098 84.4217 394.882 84.148 394.78L64.931 387.67C64.0604 387.347 64.0604 386.116 64.931 385.794L84.148 378.683C84.4217 378.582 84.6375 378.366 84.7388 378.092L91.8498 358.875Z" fill="#2C2C2C"/>
<path d="M130.617 466.014C130.785 465.56 131.428 465.56 131.596 466.014L135.306 476.04C135.359 476.183 135.472 476.296 135.614 476.349L145.641 480.059C146.095 480.227 146.095 480.869 145.641 481.037L135.614 484.747C135.472 484.8 135.359 484.913 135.306 485.056L131.596 495.082C131.428 495.536 130.785 495.536 130.617 495.082L126.907 485.056C126.855 484.913 126.742 484.8 126.599 484.747L116.573 481.037C116.119 480.869 116.119 480.227 116.573 480.059L126.599 476.349C126.742 476.296 126.855 476.183 126.907 476.04L130.617 466.014Z" fill="#2C2C2C"/>
<path d="M168.773 535.165C168.998 534.559 169.854 534.559 170.078 535.165L175.025 548.533C175.095 548.724 175.246 548.874 175.436 548.944L188.804 553.891C189.41 554.115 189.41 554.972 188.804 555.196L175.436 560.143C175.246 560.213 175.095 560.363 175.025 560.554L170.078 573.922C169.854 574.528 168.998 574.528 168.773 573.922L163.827 560.554C163.756 560.363 163.606 560.213 163.416 560.143L150.047 555.196C149.442 554.972 149.442 554.115 150.047 553.891L163.416 548.944C163.606 548.874 163.756 548.724 163.827 548.533L168.773 535.165Z" fill="#2C2C2C"/>
<path d="M236.489 565.996C236.601 565.693 237.029 565.693 237.141 565.996L239.615 572.68C239.65 572.775 239.725 572.851 239.82 572.886L246.504 575.359C246.807 575.471 246.807 575.899 246.504 576.012L239.82 578.485C239.725 578.52 239.65 578.595 239.615 578.69L237.141 585.375C237.029 585.677 236.601 585.677 236.489 585.375L234.015 578.69C233.98 578.595 233.905 578.52 233.81 578.485L227.126 576.012C226.823 575.899 226.823 575.471 227.126 575.359L233.81 572.886C233.905 572.851 233.98 572.775 234.015 572.68L236.489 565.996Z" fill="#2C2C2C"/>
<path d="M587.643 408.315C587.867 407.709 588.723 407.709 588.947 408.315L593.894 421.683C593.965 421.874 594.115 422.024 594.305 422.094L607.673 427.041C608.279 427.265 608.279 428.122 607.673 428.346L594.305 433.293C594.115 433.363 593.965 433.513 593.894 433.704L588.947 447.072C588.723 447.678 587.867 447.678 587.643 447.072L582.696 433.704C582.625 433.513 582.475 433.363 582.285 433.293L568.916 428.346C568.311 428.122 568.311 427.265 568.916 427.041L582.285 422.094C582.475 422.024 582.625 421.874 582.696 421.683L587.643 408.315Z" fill="#2C2C2C"/>
<path d="M564.225 481.319C564.323 481.054 564.698 481.054 564.796 481.319L566.96 487.168C566.991 487.251 567.057 487.317 567.14 487.348L572.989 489.512C573.254 489.61 573.254 489.985 572.989 490.083L567.14 492.247C567.057 492.278 566.991 492.343 566.96 492.427L564.796 498.275C564.698 498.54 564.323 498.54 564.225 498.275L562.061 492.427C562.03 492.343 561.965 492.278 561.881 492.247L556.033 490.083C555.768 489.985 555.768 489.61 556.033 489.512L561.881 487.348C561.965 487.317 562.03 487.251 562.061 487.168L564.225 481.319Z" fill="#2C2C2C"/>
<path d="M598.58 341.256C598.678 340.991 599.053 340.991 599.151 341.256L601.315 347.104C601.346 347.188 601.412 347.253 601.495 347.284L607.344 349.448C607.609 349.546 607.609 349.921 607.344 350.019L601.495 352.183C601.412 352.214 601.346 352.28 601.315 352.363L599.151 358.212C599.053 358.477 598.678 358.477 598.58 358.212L596.416 352.363C596.385 352.28 596.32 352.214 596.236 352.183L590.388 350.019C590.123 349.921 590.123 349.546 590.388 349.448L596.236 347.284C596.32 347.253 596.385 347.188 596.416 347.104L598.58 341.256Z" fill="#2C2C2C"/>
<path d="M404.097 123.894C404.279 123.402 404.975 123.402 405.157 123.894L409.176 134.755C409.233 134.91 409.355 135.032 409.51 135.089L420.372 139.109C420.864 139.291 420.864 139.987 420.372 140.169L409.51 144.188C409.355 144.245 409.233 144.367 409.176 144.522L405.157 155.384C404.975 155.876 404.279 155.876 404.097 155.384L400.077 144.522C400.02 144.367 399.898 144.245 399.744 144.188L388.882 140.169C388.39 139.987 388.39 139.291 388.882 139.109L399.744 135.089C399.898 135.032 400.02 134.91 400.077 134.755L404.097 123.894Z" fill="#2C2C2C"/>
<path d="M381.634 248.101C381.816 247.609 382.512 247.609 382.694 248.101L386.713 258.963C386.77 259.117 386.892 259.239 387.047 259.297L397.909 263.316C398.401 263.498 398.401 264.194 397.909 264.376L387.047 268.395C386.892 268.452 386.77 268.574 386.713 268.729L382.694 279.591C382.512 280.083 381.816 280.083 381.634 279.591L377.615 268.729C377.557 268.574 377.435 268.452 377.281 268.395L366.419 264.376C365.927 264.194 365.927 263.498 366.419 263.316L377.281 259.297C377.435 259.239 377.557 259.117 377.615 258.963L381.634 248.101Z" fill="#2C2C2C"/>
<path d="M509.723 176.968C509.933 176.4 510.736 176.4 510.947 176.968L515.584 189.501C515.65 189.679 515.791 189.82 515.969 189.886L528.502 194.524C529.07 194.734 529.07 195.537 528.502 195.747L515.969 200.385C515.791 200.451 515.65 200.591 515.584 200.77L510.947 213.303C510.736 213.871 509.933 213.871 509.723 213.303L505.086 200.77C505.02 200.591 504.879 200.451 504.7 200.385L492.168 195.747C491.6 195.537 491.6 194.734 492.168 194.524L504.7 189.886C504.879 189.82 505.02 189.679 505.086 189.501L509.723 176.968Z" fill="#2C2C2C"/>
<path d="M472.971 230.482C473.097 230.142 473.578 230.142 473.704 230.482L476.487 238.002C476.527 238.109 476.611 238.194 476.718 238.233L484.238 241.016C484.579 241.142 484.579 241.624 484.238 241.75L476.718 244.532C476.611 244.572 476.527 244.657 476.487 244.764L473.704 252.283C473.578 252.624 473.097 252.624 472.971 252.283L470.188 244.764C470.148 244.657 470.064 244.572 469.957 244.532L462.437 241.75C462.096 241.624 462.096 241.142 462.437 241.016L469.957 238.233C470.064 238.194 470.148 238.109 470.188 238.002L472.971 230.482Z" fill="#2C2C2C"/>
<path d="M454.553 304.258C454.651 303.993 455.026 303.993 455.124 304.258L457.288 310.106C457.319 310.19 457.384 310.255 457.468 310.286L463.316 312.45C463.581 312.549 463.581 312.923 463.316 313.021L457.468 315.186C457.384 315.216 457.319 315.282 457.288 315.365L455.124 321.214C455.026 321.479 454.651 321.479 454.553 321.214L452.389 315.365C452.358 315.282 452.292 315.216 452.209 315.186L446.36 313.021C446.095 312.923 446.095 312.549 446.36 312.45L452.209 310.286C452.292 310.255 452.358 310.19 452.389 310.106L454.553 304.258Z" fill="#2C2C2C"/>
<path d="M342.238 189.3C342.336 189.035 342.711 189.035 342.809 189.3L344.973 195.149C345.004 195.232 345.07 195.298 345.153 195.329L351.002 197.493C351.266 197.591 351.266 197.966 351.002 198.064L345.153 200.228C345.07 200.259 345.004 200.324 344.973 200.408L342.809 206.256C342.711 206.521 342.336 206.521 342.238 206.256L340.074 200.408C340.043 200.324 339.977 200.259 339.894 200.228L334.045 198.064C333.78 197.966 333.78 197.591 334.045 197.493L339.894 195.329C339.977 195.298 340.043 195.232 340.074 195.149L342.238 189.3Z" fill="#2C2C2C"/>
<path d="M425.565 189.08C425.635 188.891 425.902 188.891 425.972 189.08L427.518 193.257C427.54 193.317 427.587 193.364 427.647 193.386L431.824 194.932C432.013 195.002 432.013 195.269 431.824 195.339L427.647 196.885C427.587 196.907 427.54 196.954 427.518 197.014L425.972 201.191C425.902 201.381 425.635 201.381 425.565 201.191L424.019 197.014C423.997 196.954 423.95 196.907 423.89 196.885L419.713 195.339C419.523 195.269 419.523 195.002 419.713 194.932L423.89 193.386C423.95 193.364 423.997 193.317 424.019 193.257L425.565 189.08Z" fill="#2C2C2C"/>
<path d="M937.903 528.678C913.554 528.678 889.975 524.979 867.167 517.582C844.667 509.877 826.945 500.014 814 487.993L831.106 451.932C843.435 463.028 859.154 472.12 878.263 479.209C897.681 485.99 917.561 489.38 937.903 489.38C964.718 489.38 984.752 484.911 998.005 475.973C1011.26 466.726 1017.88 454.552 1017.88 439.449C1017.88 428.353 1014.19 419.415 1006.79 412.634C999.7 405.545 990.762 400.152 979.974 396.453C969.495 392.754 954.546 388.594 935.129 383.97C910.78 378.114 891.054 372.258 875.951 366.402C861.157 360.546 848.366 351.608 837.579 339.587C827.099 327.259 821.86 310.769 821.86 290.119C821.86 272.859 826.329 257.294 835.267 243.424C844.513 229.554 858.383 218.458 876.876 210.137C895.369 201.815 918.331 197.654 945.762 197.654C964.872 197.654 983.673 200.12 1002.17 205.051C1020.66 209.982 1036.53 217.071 1049.79 226.318L1034.53 263.304C1020.97 254.674 1006.48 248.201 991.07 243.886C975.659 239.263 960.557 236.951 945.762 236.951C919.564 236.951 899.838 241.729 886.585 251.283C873.64 260.838 867.167 273.167 867.167 288.269C867.167 299.365 870.866 308.457 878.263 315.546C885.66 322.327 894.753 327.721 905.54 331.728C916.636 335.426 931.584 339.433 950.386 343.748C974.735 349.604 994.306 355.46 1009.1 361.316C1023.89 367.173 1036.53 376.111 1047.01 388.131C1057.8 400.152 1063.19 416.333 1063.19 436.675C1063.19 453.627 1058.57 469.192 1049.32 483.37C1040.08 497.24 1026.05 508.335 1007.25 516.657C988.45 524.671 965.334 528.678 937.903 528.678Z" fill="#2C2C2C"/>
<path d="M1244 510.647C1237.53 516.195 1229.52 520.51 1219.96 523.592C1210.41 526.366 1200.55 527.753 1190.37 527.753C1165.72 527.753 1146.61 521.126 1133.05 507.873C1119.49 494.62 1112.7 475.665 1112.7 451.007V226.318H1157.09V279.947H1227.36V316.471H1157.09V449.158C1157.09 462.411 1160.32 472.582 1166.8 479.671C1173.58 486.76 1183.13 490.305 1195.46 490.305C1209.02 490.305 1220.58 486.452 1230.13 478.747L1244 510.647Z" fill="#2C2C2C"/>
<path d="M1511.21 279.947V524.979H1468.67V486.144C1458.81 499.705 1446.33 510.031 1431.22 517.12C1416.12 524.209 1399.48 527.753 1381.29 527.753C1357.56 527.753 1336.29 522.513 1317.49 512.034C1298.69 501.555 1283.9 486.914 1273.11 468.113C1262.63 449.004 1257.39 427.121 1257.39 402.463C1257.39 377.806 1262.63 356.077 1273.11 337.276C1283.9 318.474 1298.69 303.834 1317.49 293.355C1336.29 282.876 1357.56 277.636 1381.29 277.636C1398.86 277.636 1415.04 281.026 1429.84 287.807C1444.63 294.28 1456.96 303.988 1466.82 316.933V279.947H1511.21ZM1384.99 488.918C1400.4 488.918 1414.43 485.373 1427.06 478.284C1439.7 470.887 1449.56 460.716 1456.65 447.771C1463.74 434.518 1467.29 419.415 1467.29 402.463C1467.29 385.511 1463.74 370.563 1456.65 357.618C1449.56 344.365 1439.7 334.193 1427.06 327.105C1414.43 320.016 1400.4 316.471 1384.99 316.471C1369.27 316.471 1355.09 320.016 1342.46 327.105C1330.13 334.193 1320.27 344.365 1312.87 357.618C1305.78 370.563 1302.24 385.511 1302.24 402.463C1302.24 419.415 1305.78 434.518 1312.87 447.771C1320.27 460.716 1330.13 470.887 1342.46 478.284C1355.09 485.373 1369.27 488.918 1384.99 488.918Z" fill="#2C2C2C"/>
<path d="M1628.47 321.094C1636.18 306.916 1647.58 296.129 1662.68 288.732C1677.78 281.334 1696.12 277.636 1717.7 277.636V320.632C1715.23 320.324 1711.84 320.17 1707.53 320.17C1683.49 320.17 1664.53 327.413 1650.66 341.899C1637.1 356.077 1630.32 376.419 1630.32 402.926V524.979H1585.94V279.947H1628.47V321.094Z" fill="#2C2C2C"/>
<path d="M1837.59 527.753C1813.86 527.753 1795.52 521.28 1782.57 508.335C1769.63 495.082 1763.15 476.589 1763.15 452.857V181.935H1807.54V449.158C1807.54 462.411 1810.62 472.582 1816.78 479.671C1823.26 486.76 1832.81 490.305 1845.45 490.305C1853.15 490.305 1860.4 488.764 1867.18 485.682L1869.49 522.205C1859.32 525.904 1848.68 527.753 1837.59 527.753Z" fill="#2C2C2C"/>
<path d="M1902.45 279.947H1946.83V524.979H1902.45V279.947ZM1924.64 232.79C1916.01 232.79 1908.77 230.017 1902.91 224.469C1897.36 218.921 1894.59 212.14 1894.59 204.126C1894.59 196.113 1897.36 189.332 1902.91 183.784C1908.77 177.928 1916.01 175 1924.64 175C1933.27 175 1940.36 177.774 1945.91 183.322C1951.76 188.561 1954.69 195.188 1954.69 203.202C1954.69 211.524 1951.76 218.613 1945.91 224.469C1940.36 230.017 1933.27 232.79 1924.64 232.79Z" fill="#2C2C2C"/>
<path d="M2153.16 277.636C2184.29 277.636 2208.95 286.728 2227.14 304.913C2245.63 322.789 2254.88 349.142 2254.88 383.97V524.979H2210.49V389.056C2210.49 365.323 2204.79 347.447 2193.39 335.426C2181.98 323.406 2165.65 317.396 2144.38 317.396C2120.34 317.396 2101.38 324.485 2087.51 338.663C2073.64 352.532 2066.71 372.566 2066.71 398.765V524.979H2022.33V279.947H2064.86V316.933C2073.8 304.297 2085.82 294.588 2100.92 287.807C2116.33 281.026 2133.75 277.636 2153.16 277.636Z" fill="#2C2C2C"/>
<path d="M2563.52 279.947V491.692C2563.52 534.534 2552.89 566.126 2531.62 586.468C2510.35 607.119 2478.61 617.444 2436.38 617.444C2413.26 617.444 2391.23 614.208 2370.27 607.735C2349.31 601.571 2332.36 592.632 2319.41 580.92L2340.68 546.708C2352.08 556.571 2366.11 564.277 2382.75 569.824C2399.7 575.681 2417.12 578.609 2434.99 578.609C2463.66 578.609 2484.77 571.828 2498.33 558.266C2512.2 544.705 2519.14 524.054 2519.14 496.315V476.897C2508.66 489.534 2495.71 499.089 2480.3 505.561C2465.2 511.726 2448.71 514.808 2430.83 514.808C2407.41 514.808 2386.14 509.876 2367.03 500.014C2348.23 489.842 2333.44 475.819 2322.65 457.942C2311.86 439.757 2306.47 419.107 2306.47 395.991C2306.47 372.875 2311.86 352.378 2322.65 334.502C2333.44 316.317 2348.23 302.293 2367.03 292.43C2386.14 282.567 2407.41 277.636 2430.83 277.636C2449.33 277.636 2466.43 281.026 2482.15 287.807C2498.18 294.588 2511.28 304.605 2521.45 317.858V279.947H2563.52ZM2435.92 475.973C2451.95 475.973 2466.28 472.582 2478.91 465.802C2491.86 459.021 2501.88 449.62 2508.97 437.6C2516.36 425.271 2520.06 411.402 2520.06 395.991C2520.06 372.258 2512.2 353.149 2496.48 338.663C2480.76 323.868 2460.58 316.471 2435.92 316.471C2410.95 316.471 2390.61 323.868 2374.89 338.663C2359.17 353.149 2351.31 372.258 2351.31 395.991C2351.31 411.402 2354.86 425.271 2361.95 437.6C2369.34 449.62 2379.36 459.021 2392 465.802C2404.94 472.582 2419.58 475.973 2435.92 475.973Z" fill="#2C2C2C"/>
<circle cx="192" cy="198" r="20" fill="white"/>
</svg>
